<svg width="299" height="265" version="1.1" xmlns="http://www.w3.org/2000/svg" desc="Created with imagetracer.js version 1.2.6" ><path fill="rgb(214,215,214)" stroke="rgb(214,215,214)" stroke-width="1" opacity="1" d="M 89.5 26 L 88.5 28 L 89.5 26 Z " /><path fill="rgb(214,215,214)" stroke="rgb(214,215,214)" stroke-width="1" opacity="1" d="M 123.5 26 L 127 26.5 L 123.5 27 L 123.5 26 Z " /><path fill="rgb(214,215,214)" stroke="rgb(214,215,214)" stroke-width="1" opacity="1" d="M 165.5 26 L 169 26.5 L 165.5 27 L 165.5 26 Z " /><path fill="rgb(214,215,214)" stroke="rgb(214,215,214)" stroke-width="1" opacity="1" d="M 202.5 26 L 203.5 28 L 202.5 26 Z " /><path fill="rgb(214,215,214)" stroke="rgb(214,215,214)" stroke-width="1" opacity="1" d="M 85.5 29 L 82.5 33 L 85.5 29 Z " /><path fill="rgb(214,215,214)" stroke="rgb(214,215,214)" stroke-width="1" opacity="1" d="M 206.5 29 L 209.5 33 L 206.5 29 Z " /><path fill="rgb(214,215,214)" stroke="rgb(214,215,214)" stroke-width="1" opacity="1" d="M 98.5 35 L 97.5 37 L 98.5 35 Z " /><path fill="rgb(214,215,214)" stroke="rgb(214,215,214)" stroke-width="1" opacity="1" d="M 78.5 36 L 75.5 40 L 78.5 36 Z " /><path fill="rgb(214,215,214)" stroke="rgb(214,215,214)" stroke-width="1" opacity="1" d="M 213.5 36 L 216.5 40 L 213.5 36 Z " /><path fill="rgb(214,215,214)" stroke="rgb(214,215,214)" stroke-width="1" opacity="1" d="M 73.5 42 L 72.5 44 L 73.5 42 Z " /><path fill="rgb(214,215,214)" stroke="rgb(214,215,214)" stroke-width="1" opacity="1" d="M 218.5 42 L 219.5 44 L 218.5 42 Z " /><path fill="rgb(214,215,214)" stroke="rgb(214,215,214)" stroke-width="1" opacity="1" d="M 206.5 47 L 207.5 49 L 206.5 47 Z " /><path fill="rgb(214,215,214)" stroke="rgb(214,215,214)" stroke-width="1" opacity="1" d="M 82.5 51 L 81.5 53 L 82.5 51 Z " /><path fill="rgb(214,215,214)" stroke="rgb(214,215,214)" stroke-width="1" opacity="1" d="M 72.5 77 L 73 80.5 L 72 80.5 L 72.5 77 Z " /><path fill="rgb(214,215,214)" stroke="rgb(214,215,214)" stroke-width="1" opacity="1" d="M 219.5 77 L 220 80.5 L 219 80.5 L 219.5 77 Z " /><path fill="rgb(214,215,214)" stroke="rgb(214,215,214)" stroke-width="1" opacity="1" d="M 29.5 97 L 28.5 99 L 29.5 97 Z " /><path fill="rgb(214,215,214)" stroke="rgb(214,215,214)" stroke-width="1" opacity="1" d="M 262.5 97 L 263.5 99 L 262.5 97 Z " /><path fill="rgb(214,215,214)" stroke="rgb(214,215,214)" stroke-width="1" opacity="1" d="M 24.5 102 L 23.5 104 L 24.5 102 Z " /><path fill="rgb(214,215,214)" stroke="rgb(214,215,214)" stroke-width="1" opacity="1" d="M 267.5 102 L 268.5 104 L 267.5 102 Z " /><path fill="rgb(214,215,214)" stroke="rgb(214,215,214)" stroke-width="1" opacity="1" d="M 23.5 176 L 24.5 178 L 23.5 176 Z " /><path fill="rgb(214,215,214)" stroke="rgb(214,215,214)" stroke-width="1" opacity="1" d="M 268.5 176 L 267.5 178 L 268.5 176 Z " /><path fill="rgb(214,215,214)" stroke="rgb(214,215,214)" stroke-width="1" opacity="1" d="M 28.5 181 L 29.5 183 L 28.5 181 Z " /><path fill="rgb(214,215,214)" stroke="rgb(214,215,214)" stroke-width="1" opacity="1" d="M 263.5 181 L 262.5 183 L 263.5 181 Z " /><path fill="rgb(214,215,214)" stroke="rgb(214,215,214)" stroke-width="1" opacity="1" d="M 72.5 183 L 73 185.5 L 72 185.5 L 72.5 183 Z " /><path fill="rgb(214,215,214)" stroke="rgb(214,215,214)" stroke-width="1" opacity="1" d="M 82.5 207 L 86.5 212 L 82.5 207 Z " /><path fill="rgb(214,215,214)" stroke="rgb(214,215,214)" stroke-width="1" opacity="1" d="M 125.5 209 L 124.5 211 L 125.5 209 Z " /><path fill="rgb(214,215,214)" stroke="rgb(214,215,214)" stroke-width="1" opacity="1" d="M 166.5 209 L 167.5 211 L 166.5 209 Z " /><path fill="rgb(214,215,214)" stroke="rgb(214,215,214)" stroke-width="1" opacity="1" d="M 71.5 213 L 72.5 215 L 71.5 213 Z " /><path fill="rgb(214,215,214)" stroke="rgb(214,215,214)" stroke-width="1" opacity="1" d="M 171.5 214 L 172.5 216 L 171.5 214 Z " /><path fill="rgb(214,215,214)" stroke="rgb(214,215,214)" stroke-width="1" opacity="1" d="M 79.5 221 L 81.5 224 L 79.5 221 Z " /><path fill="rgb(214,215,214)" stroke="rgb(214,215,214)" stroke-width="1" opacity="1" d="M 108.5 221 L 112 221.5 L 108.5 222 L 108.5 221 Z " /><path fill="rgb(214,215,214)" stroke="rgb(214,215,214)" stroke-width="1" opacity="1" d="M 172.5 240 L 171.5 242 L 172.5 240 Z " /><path fill="rgb(214,215,214)" stroke="rgb(214,215,214)" stroke-width="1" opacity="1" d="M 124.5 245 L 125.5 247 L 124.5 245 Z " /><path fill="rgb(214,215,214)" stroke="rgb(214,215,214)" stroke-width="1" opacity="1" d="M 167.5 245 L 166.5 247 L 167.5 245 Z " /><path fill="rgb(247,247,247)" stroke="rgb(247,247,247)" stroke-width="1" opacity="1" d="M 0 0 L 299 0 L 299 265 L 0 265 L 0 0 Z M 120 14 Q 99 18 86 29 Q 71 40 64 59 L 60 74 L 60 94 L 37 94 L 30 97 Q 22 101 20 111 L 20 170 L 23 177 Q 27 184 37 186 L 60 186 L 63 200 L 71 214 Q 78 223 90 229 L 105 234 L 117 234 L 120 242 Q 124 248 133 250 L 160 250 L 167 247 Q 174 243 176 234 Q 178 221 173 216 Q 169 208 160 206 L 133 206 L 126 209 Q 118 213 117 222 L 102 220 L 90 214 L 78 202 L 74 193 L 72 183 L 72 82 L 75 66 L 85 48 Q 92 39 103 33 L 112 29 L 128 26 L 165 26 Q 166 29 173 27 Q 188 30 199 39 Q 214 51 219 74 Q 217 80 220 82 L 220 183 L 221 185 L 224 186 L 256 186 L 263 183 Q 270 179 272 170 L 272 111 L 269 104 Q 265 96 256 94 L 232 94 L 232 74 L 230 65 Q 226 50 217 40 Q 204 23 182 16 L 173 14 L 120 14 Z M 128 86 L 125 87 L 104 153 Q 103 159 105 161 L 108 162 Q 113 163 115 161 L 119 148 L 121 146 L 148 146 L 153 161 L 156 162 Q 161 163 163 161 L 164 159 L 164 153 L 143 87 L 141 86 L 128 86 Z M 180 86 L 177 87 L 176 90 L 176 159 L 177 161 L 180 162 Q 185 163 187 161 L 188 159 L 188 90 L 187 87 Q 185 85 180 86 Z " /><path fill="rgb(247,247,247)" stroke="rgb(247,247,247)" stroke-width="1" opacity="1" d="M 133 102 Q 136 100.8 135 104.5 L 144 134 L 124.5 134 L 124 131.5 L 133 102 Z " /><path fill="rgb(247,247,247)" stroke="rgb(247,247,247)" stroke-width="1" opacity="1" d="M 41.5 106 L 59.5 106 L 60 106.5 L 60 174 L 41.5 174 L 34 169.5 L 32 164.5 L 32 115.5 L 36.5 108 L 41.5 106 Z " /><path fill="rgb(247,247,247)" stroke="rgb(247,247,247)" stroke-width="1" opacity="1" d="M 232 106 L 250.5 106 L 258 110.5 L 260 115.5 L 260 164.5 L 255.5 172 L 250.5 174 L 232 174 L 232 106 Z " /><path fill="rgb(247,247,247)" stroke="rgb(247,247,247)" stroke-width="1" opacity="1" d="M 137.5 218 L 154.5 218 L 162 222.5 L 164 228.5 L 159.5 236 L 154.5 238 L 137.5 238 L 130 233.5 L 128 227.5 L 132.5 220 L 137.5 218 Z " /><path fill="rgb(104,104,104)" stroke="rgb(104,104,104)" stroke-width="1" opacity="1" d="M 121.5 14 L 125 14.5 L 121.5 15 L 121.5 14 Z " /><path fill="rgb(104,104,104)" stroke="rgb(104,104,104)" stroke-width="1" opacity="1" d="M 167.5 14 L 171 14.5 L 167.5 15 L 167.5 14 Z " /><path fill="rgb(104,104,104)" stroke="rgb(104,104,104)" stroke-width="1" opacity="1" d="M 91.5 25 L 90.5 27 L 91.5 25 Z " /><path fill="rgb(104,104,104)" stroke="rgb(104,104,104)" stroke-width="1" opacity="1" d="M 200.5 25 L 201.5 27 L 200.5 25 Z " /><path fill="rgb(104,104,104)" stroke="rgb(104,104,104)" stroke-width="1" opacity="1" d="M 120.5 26 L 123 26.5 L 120.5 27 L 120.5 26 Z " /><path fill="rgb(104,104,104)" stroke="rgb(104,104,104)" stroke-width="1" opacity="1" d="M 169.5 26 L 172 26.5 L 169.5 27 L 169.5 26 Z " /><path fill="rgb(104,104,104)" stroke="rgb(104,104,104)" stroke-width="1" opacity="1" d="M 87.5 28 L 86.5 30 L 87.5 28 Z " /><path fill="rgb(104,104,104)" stroke="rgb(104,104,104)" stroke-width="1" opacity="1" d="M 204.5 28 L 205.5 30 L 204.5 28 Z " /><path fill="rgb(104,104,104)" stroke="rgb(104,104,104)" stroke-width="1" opacity="1" d="M 81.5 33 L 79.5 36 L 81.5 33 Z " /><path fill="rgb(104,104,104)" stroke="rgb(104,104,104)" stroke-width="1" opacity="1" d="M 210.5 33 L 212.5 36 L 210.5 33 Z " /><path fill="rgb(104,104,104)" stroke="rgb(104,104,104)" stroke-width="1" opacity="1" d="M 96.5 36 L 95.5 38 L 96.5 36 Z " /><path fill="rgb(104,104,104)" stroke="rgb(104,104,104)" stroke-width="1" opacity="1" d="M 195.5 36 L 196.5 38 L 195.5 36 Z " /><path fill="rgb(104,104,104)" stroke="rgb(104,104,104)" stroke-width="1" opacity="1" d="M 92.5 39 L 85.5 47 L 92.5 39 Z " /><path fill="rgb(104,104,104)" stroke="rgb(104,104,104)" stroke-width="1" opacity="1" d="M 199.5 39 L 206.5 47 L 199.5 39 Z " /><path fill="rgb(104,104,104)" stroke="rgb(104,104,104)" stroke-width="1" opacity="1" d="M 75.5 40 L 74.5 42 L 75.5 40 Z " /><path fill="rgb(104,104,104)" stroke="rgb(104,104,104)" stroke-width="1" opacity="1" d="M 216.5 40 L 217.5 42 L 216.5 40 Z " /><path fill="rgb(104,104,104)" stroke="rgb(104,104,104)" stroke-width="1" opacity="1" d="M 72.5 44 L 71.5 46 L 72.5 44 Z " /><path fill="rgb(104,104,104)" stroke="rgb(104,104,104)" stroke-width="1" opacity="1" d="M 219.5 44 L 220.5 46 L 219.5 44 Z " /><path fill="rgb(104,104,104)" stroke="rgb(104,104,104)" stroke-width="1" opacity="1" d="M 83.5 49 L 82.5 51 L 83.5 49 Z " /><path fill="rgb(104,104,104)" stroke="rgb(104,104,104)" stroke-width="1" opacity="1" d="M 208.5 49 L 209.5 51 L 208.5 49 Z " /><path fill="rgb(104,104,104)" stroke="rgb(104,104,104)" stroke-width="1" opacity="1" d="M 72.5 74 L 73 76.5 L 72 76.5 L 72.5 74 Z " /><path fill="rgb(104,104,104)" stroke="rgb(104,104,104)" stroke-width="1" opacity="1" d="M 219.5 74 L 220 76.5 L 219 76.5 L 219.5 74 Z " /><path fill="rgb(104,104,104)" stroke="rgb(104,104,104)" stroke-width="1" opacity="1" d="M 60.5 75 L 61 78.5 L 60 78.5 L 60.5 75 Z " /><path fill="rgb(104,104,104)" stroke="rgb(104,104,104)" stroke-width="1" opacity="1" d="M 231.5 75 L 232 78.5 L 231 78.5 L 231.5 75 Z " /><path fill="rgb(104,104,104)" stroke="rgb(104,104,104)" stroke-width="1" opacity="1" d="M 179.5 86 L 181 86.5 L 177 89.5 L 176.5 91 L 176 89.5 L 179.5 86 Z " /><path fill="rgb(104,104,104)" stroke="rgb(104,104,104)" stroke-width="1" opacity="1" d="M 183.5 86 L 188 89.5 L 187.5 91 L 184.5 87 L 183.5 86 Z " /><path fill="rgb(104,104,104)" stroke="rgb(104,104,104)" stroke-width="1" opacity="1" d="M 27.5 99 L 25.5 102 L 27.5 99 Z " /><path fill="rgb(104,104,104)" stroke="rgb(104,104,104)" stroke-width="1" opacity="1" d="M 264.5 99 L 266.5 102 L 264.5 99 Z " /><path fill="rgb(104,104,104)" stroke="rgb(104,104,104)" stroke-width="1" opacity="1" d="M 36.5 107 L 33.5 111 L 36.5 107 Z " /><path fill="rgb(104,104,104)" stroke="rgb(104,104,104)" stroke-width="1" opacity="1" d="M 255.5 107 L 258.5 111 L 255.5 107 Z " /><path fill="rgb(104,104,104)" stroke="rgb(104,104,104)" stroke-width="1" opacity="1" d="M 176.5 157 L 179.5 161 L 181 161.5 L 179.5 162 L 176 158.5 L 176.5 157 Z " /><path fill="rgb(104,104,104)" stroke="rgb(104,104,104)" stroke-width="1" opacity="1" d="M 187.5 157 L 188 158.5 L 183.5 162 L 183.5 161 L 187 158.5 L 187.5 157 Z " /><path fill="rgb(104,104,104)" stroke="rgb(104,104,104)" stroke-width="1" opacity="1" d="M 161.5 160 L 160.5 162 L 159 161.5 L 161.5 160 Z " /><path fill="rgb(104,104,104)" stroke="rgb(104,104,104)" stroke-width="1" opacity="1" d="M 33.5 169 L 36.5 173 L 33.5 169 Z " /><path fill="rgb(104,104,104)" stroke="rgb(104,104,104)" stroke-width="1" opacity="1" d="M 258.5 169 L 255.5 173 L 258.5 169 Z " /><path fill="rgb(104,104,104)" stroke="rgb(104,104,104)" stroke-width="1" opacity="1" d="M 25.5 178 L 27.5 181 L 25.5 178 Z " /><path fill="rgb(104,104,104)" stroke="rgb(104,104,104)" stroke-width="1" opacity="1" d="M 266.5 178 L 264.5 181 L 266.5 178 Z " /><path fill="rgb(104,104,104)" stroke="rgb(104,104,104)" stroke-width="1" opacity="1" d="M 220.5 181 L 223.5 185 L 225 185.5 L 223.5 186 L 220 182.5 L 220.5 181 Z " /><path fill="rgb(104,104,104)" stroke="rgb(104,104,104)" stroke-width="1" opacity="1" d="M 80.5 205 L 81.5 207 L 80.5 205 Z " /><path fill="rgb(104,104,104)" stroke="rgb(104,104,104)" stroke-width="1" opacity="1" d="M 123.5 211 L 121.5 214 L 123.5 211 Z " /><path fill="rgb(104,104,104)" stroke="rgb(104,104,104)" stroke-width="1" opacity="1" d="M 168.5 211 L 170.5 214 L 168.5 211 Z " /><path fill="rgb(104,104,104)" stroke="rgb(104,104,104)" stroke-width="1" opacity="1" d="M 87.5 212 L 88.5 214 L 87.5 212 Z " /><path fill="rgb(104,104,104)" stroke="rgb(104,104,104)" stroke-width="1" opacity="1" d="M 73.5 215 L 78.5 221 L 73.5 215 Z " /><path fill="rgb(104,104,104)" stroke="rgb(104,104,104)" stroke-width="1" opacity="1" d="M 132.5 219 L 129.5 223 L 132.5 219 Z " /><path fill="rgb(104,104,104)" stroke="rgb(104,104,104)" stroke-width="1" opacity="1" d="M 159.5 219 L 162.5 223 L 159.5 219 Z " /><path fill="rgb(104,104,104)" stroke="rgb(104,104,104)" stroke-width="1" opacity="1" d="M 82.5 223 L 83.5 225 L 82.5 223 Z " /><path fill="rgb(104,104,104)" stroke="rgb(104,104,104)" stroke-width="1" opacity="1" d="M 106.5 233 L 110 233.5 L 106.5 234 L 106.5 233 Z " /><path fill="rgb(104,104,104)" stroke="rgb(104,104,104)" stroke-width="1" opacity="1" d="M 129.5 233 L 132.5 237 L 129.5 233 Z " /><path fill="rgb(104,104,104)" stroke="rgb(104,104,104)" stroke-width="1" opacity="1" d="M 162.5 233 L 159.5 237 L 162.5 233 Z " /><path fill="rgb(104,104,104)" stroke="rgb(104,104,104)" stroke-width="1" opacity="1" d="M 121.5 242 L 123.5 245 L 121.5 242 Z " /><path fill="rgb(104,104,104)" stroke="rgb(104,104,104)" stroke-width="1" opacity="1" d="M 170.5 242 L 168.5 245 L 170.5 242 Z " /><path fill="rgb(0,0,0)" stroke="rgb(0,0,0)" stroke-width="1" opacity="1" d="M 125.5 14 L 166.5 14 L 182.5 17 Q 203.4 24.1 216 39.5 Q 224.6 49.4 229 63.5 L 232 79.5 L 232 94 L 252.5 94 L 256.5 95 Q 263.9 97.6 268 103.5 L 272 113.5 L 272 166.5 Q 269.9 176.9 262.5 182 L 252.5 186 L 225.5 186 L 221 182.5 L 220 180.5 L 220 74.5 Q 215 51.5 199.5 39 Q 188.7 29.3 171.5 26 L 120.5 26 Q 97.5 31 85 46.5 Q 75.3 57.3 72 74.5 L 72 187.5 Q 75.7 205.3 88.5 214 L 102.5 221 L 116.5 222 Q 119.4 214.4 125.5 210 L 135.5 206 L 156.5 206 Q 166.9 208.1 172 215.5 Q 176.2 220.8 176 230.5 Q 173.9 240.9 166.5 246 L 156.5 250 L 135.5 250 Q 125.1 247.9 120 240.5 L 116.5 234 L 103.5 233 L 93.5 230 Q 79.6 223.9 71 212.5 Q 62.8 201.9 61 186 L 39.5 186 L 35.5 185 Q 28.1 182.4 24 176.5 L 20 166.5 L 20 113.5 Q 22.1 103.1 29.5 98 L 39.5 94 L 60 94 L 61 71.5 L 66 55.5 Q 73.2 40.2 85.5 30 L 101.5 20 L 109.5 17 L 125.5 14 Z M 39 106 L 37 107 L 32 113 L 32 168 L 33 170 L 39 174 L 60 174 L 60 107 L 60 106 L 39 106 Z M 232 106 L 232 174 L 254 174 L 256 173 L 260 168 L 260 113 L 259 111 L 254 106 L 232 106 Z M 135 218 L 133 219 L 128 225 L 129 234 L 135 238 L 158 238 L 160 237 L 164 232 L 163 223 L 158 218 L 135 218 Z " /><path fill="rgb(0,0,0)" stroke="rgb(0,0,0)" stroke-width="1" opacity="1" d="M 129.5 86 Q 139.1 84.4 143 88.5 L 164 156.5 L 163 160 L 157.5 162 L 153 159.5 L 149 146 L 119.5 146 L 119 147.5 L 116 157.5 L 113.5 161 L 109.5 162 L 105 159.5 L 104 155.5 L 124 90.5 L 126.5 87 L 129.5 86 Z M 133 100 L 123 133 L 124 134 L 145 134 L 135 103 Q 136 99 133 100 Z " /><path fill="rgb(0,0,0)" stroke="rgb(0,0,0)" stroke-width="1" opacity="1" d="M 181.5 86 L 187 89.5 L 188 91.5 L 188 156.5 L 184.5 161 L 181.5 162 L 177 158.5 L 176 156.5 L 176 91.5 L 179.5 87 L 181.5 86 Z " /></svg>